<?xml version="1.0" encoding="UTF-8"?><svg width="100" height="43" viewBox="0 0 100 43" xmlns="http://www.w3.org/2000/svg" xmlns:xlink="http://www.w3.org/1999/xlink"><svg width="42" height="43" viewBox="-5 -5 42 43" id="gw-gear" xmlns="http://www.w3.org/2000/svg"><path d="M32 18.458v-4.843l-3.83-.554a11.877 11.877 0 0 0-1.353-3.19l2.64-3.46-3.533-3.426-3.565 2.56a12.681 12.681 0 0 0-3.206-1.292L18.498 0h-4.996l-.655 4.253a12.713 12.713 0 0 0-3.281 1.332L6.454 3.35 2.92 6.776l2.305 3.018a11.875 11.875 0 0 0-1.394 3.263L0 13.611v4.845l3.83.554a11.937 11.937 0 0 0 1.35 3.19l-2.64 3.458 3.533 3.425 3.566-2.562a12.693 12.693 0 0 0 3.208 1.293l.655 4.252h4.996l.655-4.252a12.733 12.733 0 0 0 3.281-1.333l3.114 2.235 3.533-3.426-2.305-3.02a11.882 11.882 0 0 0 1.394-3.262l3.83-.55zM16.001 23.28c-4.124 0-7.47-3.243-7.47-7.245 0-3.999 3.344-7.242 7.47-7.242 4.126 0 7.47 3.243 7.47 7.242 0 4-3.344 7.245-7.47 7.245z" fill="#8c8c8c" fill-rule="evenodd"/></svg><svg id="soc-fb" viewBox="-5 -5 24 34" width="24" height="34" x="42" xmlns="http://www.w3.org/2000/svg"><style>.bst0{fill:#8c8c8c}</style><title>Path</title><g id="bPage-1"><g id="bChurchThread-Home" transform="translate(-88 -4768)"><path id="bPath" class="bst0" d="M92 4776h-4v4h4v12h6v-12h3.6l.4-4h-4v-1.7c0-1 .2-1.3 1.1-1.3h2.9v-5h-4.8c-3.6 0-5.2 1.6-5.2 4.6v3.4z"/></g></g></svg><svg id="soc-tw" viewBox="-5 -5 34 30" width="34" height="30" x="66" xmlns="http://www.w3.org/2000/svg"><style>.cst0{fill:#8c8c8c}</style><title>Path</title><g id="cPage-1"><g id="cChurchThread-Home" transform="translate(-142 -4771)"><path id="cPath" class="cst0" d="M163.2 4774.2c1-.6 1.8-1.6 2.2-2.8-1 .6-2 1-3.1 1.2-.9-1-2.2-1.6-3.6-1.6-3.2 0-5.5 3-4.8 6.2-4.1-.2-7.7-2.2-10.1-5.3-1.3 2.3-.7 5.2 1.5 6.7-.8 0-1.6-.3-2.2-.6-.1 2.3 1.6 4.5 3.9 5-.7.2-1.5.2-2.2.1.6 2 2.4 3.5 4.6 3.5-2.1 1.7-4.7 2.4-7.3 2.1 2.2 1.4 4.8 2.3 7.5 2.3 9.1 0 14.3-7.9 14-15 1-.7 1.8-1.6 2.5-2.6-1 .4-1.9.6-2.9.8z"/></g></g></svg></svg>