<svg xmlns="http://www.w3.org/2000/svg">
    <symbol id="gw-gear" viewBox="0 0 32 33">
      <title>gw-gear</title>
       <g transform="translate(-1082.000000, -4961.000000)"> <path d="M1114,4979.45788 L1114,4974.61484 L1110.17039,4974.06138 C1109.87592,4972.92538 1109.41549,4971.8548 1108.81747,4970.87093 L1111.45692,4967.41101 L1107.92444,4963.98537 L1104.35878,4966.545 C1103.36724,4965.97907 1102.29272,4965.5388 1101.15289,4965.25324 L1100.49811,4961 L1095.50189,4961 L1094.84711,4965.25324 C1093.67837,4965.54711 1092.57601,4965.99932 1091.56574,4966.58549 L1088.45407,4964.35036 L1084.91946,4967.77601 L1087.22429,4970.79408 C1086.60539,4971.79769 1086.1305,4972.89319 1085.82961,4974.05722 L1082,4974.61068 L1082,4979.45581 L1085.82961,4980.00979 C1086.12408,4981.14526 1086.58451,4982.21636 1087.18039,4983.19972 L1084.54094,4986.65755 L1088.07341,4990.0832 L1091.63908,4987.52149 C1092.63062,4988.08741 1093.70567,4988.52769 1094.84711,4988.81377 L1095.50189,4993.06649 L1100.49811,4993.06649 L1101.15289,4988.81377 C1102.32163,4988.51938 1103.42399,4988.06716 1104.43426,4987.48099 L1107.54807,4989.71613 L1111.08054,4986.29048 L1108.77571,4983.27085 C1109.39461,4982.26672 1109.8695,4981.17174 1110.17039,4980.00771 L1114,4979.45788 Z M1098.00107,4984.28068 C1093.877,4984.28068 1090.53083,4981.03779 1090.53083,4977.03636 C1090.53083,4973.037 1093.87485,4969.79412 1098.00107,4969.79412 C1102.12729,4969.79412 1105.47131,4973.037 1105.47131,4977.03636 C1105.47131,4981.03571 1102.12729,4984.28068 1098.00107,4984.28068 L1098.00107,4984.28068 Z" id="Page-1"/> </g> 
    </symbol>
    <symbol id="social-facebook" viewBox="0 0 14 24">
      <title>social-facebook</title>
       <g transform="translate(-88.000000, -4768.000000)"> <path d="M92,4776h-4v4h4v12h6v-12h3.6l0.4-4h-4v-1.7c0-1,0.2-1.3,1.1-1.3h2.9v-5h-4.8
			c-3.6,0-5.2,1.6-5.2,4.6V4776L92,4776z"/> </g> 
    </symbol>
    <symbol id="social-twitter" viewBox="0 0 24 20">
      <title>social-twitter</title>
       <g transform="translate(-142.000000, -4771.000000)"> <path d="M163.2,4774.2c1-0.6,1.8-1.6,2.2-2.8c-1,0.6-2,1-3.1,1.2c-0.9-1-2.2-1.6-3.6-1.6
			c-3.2,0-5.5,3-4.8,6.2c-4.1-0.2-7.7-2.2-10.1-5.3c-1.3,2.3-0.7,5.2,1.5,6.7c-0.8,0-1.6-0.3-2.2-0.6c-0.1,2.3,1.6,4.5,3.9,5
			c-0.7,0.2-1.5,0.2-2.2,0.1c0.6,2,2.4,3.5,4.6,3.5c-2.1,1.7-4.7,2.4-7.3,2.1c2.2,1.4,4.8,2.3,7.5,2.3c9.1,0,14.3-7.9,14-15
			c1-0.7,1.8-1.6,2.5-2.6C165.1,4773.8,164.2,4774,163.2,4774.2z"/> </g> 
    </symbol></svg>