<?xml version="1.0" encoding="utf-8"?>
<!-- Generator: Adobe Illustrator 19.2.0, SVG Export Plug-In . SVG Version: 6.00 Build 0)  -->
<svg version="1.1" id="Layer_1" xmlns="http://www.w3.org/2000/svg" xmlns:xlink="http://www.w3.org/1999/xlink" x="0px" y="0px"
	 viewBox="0 0 24 20" style="enable-background:new 0 0 24 20;" xml:space="preserve">
<style type="text/css">
	.st0{fill:#8c8c8c;}
</style>
<title>Path</title>
<desc>Created with Sketch.</desc>
<g id="Page-1">
	<g id="ChurchThread-Home" transform="translate(-142.000000, -4771.000000)">
		<path id="Path" class="st0" d="M163.2,4774.2c1-0.6,1.8-1.6,2.2-2.8c-1,0.6-2,1-3.1,1.2c-0.9-1-2.2-1.6-3.6-1.6
			c-3.2,0-5.5,3-4.8,6.2c-4.1-0.2-7.7-2.2-10.1-5.3c-1.3,2.3-0.7,5.2,1.5,6.7c-0.8,0-1.6-0.3-2.2-0.6c-0.1,2.3,1.6,4.5,3.9,5
			c-0.7,0.2-1.5,0.2-2.2,0.1c0.6,2,2.4,3.5,4.6,3.5c-2.1,1.7-4.7,2.4-7.3,2.1c2.2,1.4,4.8,2.3,7.5,2.3c9.1,0,14.3-7.9,14-15
			c1-0.7,1.8-1.6,2.5-2.6C165.1,4773.8,164.2,4774,163.2,4774.2z"/>
	</g>
</g>
</svg>
